<svg xmlns="http://www.w3.org/2000/svg" width="64" height="64" viewBox="0 0 64 64" fill="none">
  <path fill-rule="evenodd" clip-rule="evenodd" d="M46.6667 7.33325C47.7712 7.33325 48.6667 8.22868 48.6667 9.33325V15.3333H54.6667C55.7712 15.3333 56.6667 16.2287 56.6667 17.3333C56.6667 18.4378 55.7712 19.3333 54.6667 19.3333H48.6667V25.3333C48.6667 26.4378 47.7712 27.3333 46.6667 27.3333C45.5621 27.3333 44.6667 26.4378 44.6667 25.3333V19.3333H38.6667C37.5621 19.3333 36.6667 18.4378 36.6667 17.3333C36.6667 16.2287 37.5621 15.3333 38.6667 15.3333H44.6667V9.33325C44.6667 8.22868 45.5621 7.33325 46.6667 7.33325Z" fill="#CCCCCC"/>
  <path d="M5.33334 17.3333C5.33334 11.6764 5.33334 8.84797 7.0907 7.09061C8.84806 5.33325 11.6765 5.33325 17.3333 5.33325C22.9902 5.33325 25.8186 5.33325 27.576 7.09061C29.3333 8.84797 29.3333 11.6764 29.3333 17.3333C29.3333 22.9901 29.3333 25.8185 27.576 27.5759C25.8186 29.3333 22.9902 29.3333 17.3333 29.3333C11.6765 29.3333 8.84806 29.3333 7.0907 27.5759C5.33334 25.8185 5.33334 22.9901 5.33334 17.3333Z" fill="#CCCCCC"/>
  <path d="M34.6667 46.6667C34.6667 41.0099 34.6667 38.1815 36.424 36.4241C38.1814 34.6667 41.0098 34.6667 46.6667 34.6667C52.3235 34.6667 55.1519 34.6667 56.9093 36.4241C58.6667 38.1815 58.6667 41.0099 58.6667 46.6667C58.6667 52.3236 58.6667 55.152 56.9093 56.9094C55.1519 58.6667 52.3235 58.6667 46.6667 58.6667C41.0098 58.6667 38.1814 58.6667 36.424 56.9094C34.6667 55.152 34.6667 52.3236 34.6667 46.6667Z" fill="#CCCCCC"/>
  <path opacity="0.5" d="M5.33334 46.6667C5.33334 41.0099 5.33334 38.1815 7.0907 36.4241C8.84806 34.6667 11.6765 34.6667 17.3333 34.6667C22.9902 34.6667 25.8186 34.6667 27.576 36.4241C29.3333 38.1815 29.3333 41.0099 29.3333 46.6667C29.3333 52.3236 29.3333 55.152 27.576 56.9094C25.8186 58.6667 22.9902 58.6667 17.3333 58.6667C11.6765 58.6667 8.84806 58.6667 7.0907 56.9094C5.33334 55.152 5.33334 52.3236 5.33334 46.6667Z" fill="#CCCCCC"/>
</svg>