<svg xmlns="http://www.w3.org/2000/svg" width="64" height="64" viewBox="0 0 64 64" fill="none">
  <g opacity="0.5">
    <path d="M19.2125 20.1663C20.0406 19.4353 20.1194 18.1715 19.3885 17.3433C18.6576 16.5152 17.3937 16.4364 16.5655 17.1673C11.7247 21.4399 8.66666 27.6975 8.66666 34.6668C8.66666 35.7714 9.56209 36.6668 10.6667 36.6668C11.7712 36.6668 12.6667 35.7714 12.6667 34.6668C12.6667 28.8927 15.1954 23.7118 19.2125 20.1663Z" fill="#CCCCCC"/>
    <path d="M47.4344 17.1673C46.6063 16.4364 45.3424 16.5152 44.6115 17.3433C43.8806 18.1715 43.9594 19.4353 44.7875 20.1663C48.8046 23.7118 51.3333 28.8927 51.3333 34.6668C51.3333 35.7714 52.2288 36.6668 53.3333 36.6668C54.4379 36.6668 55.3333 35.7714 55.3333 34.6668C55.3333 27.6975 52.2753 21.4399 47.4344 17.1673Z" fill="#CCCCCC"/>
    <path d="M27.1652 53.3912C26.0955 53.1159 25.0051 53.7599 24.7298 54.8296C24.4545 55.8993 25.0984 56.9896 26.1681 57.265C28.0343 57.7453 29.9888 58.0002 32 58.0002C34.0112 58.0002 35.9657 57.7453 37.8318 57.265C38.9015 56.9896 39.5455 55.8993 39.2702 54.8296C38.9949 53.7599 37.9045 53.1159 36.8348 53.3912C35.2917 53.7884 33.672 54.0002 32 54.0002C30.328 54.0002 28.7083 53.7884 27.1652 53.3912Z" fill="#CCCCCC"/>
  </g>
  <path d="M24 16C24 20.4183 27.5817 24 32 24C36.4183 24 40 20.4183 40 16C40 11.5817 36.4183 8 32 8C27.5817 8 24 11.5817 24 16Z" fill="#CCCCCC"/>
  <path d="M6.66666 48C6.66666 52.4183 10.2484 56 14.6667 56C19.0849 56 22.6667 52.4183 22.6667 48C22.6667 43.5817 19.0849 40 14.6667 40C10.2484 40 6.66666 43.5817 6.66666 48Z" fill="#CCCCCC"/>
  <path d="M49.3333 56C44.915 56 41.3333 52.4183 41.3333 48C41.3333 43.5817 44.915 40 49.3333 40C53.7516 40 57.3333 43.5817 57.3333 48C57.3333 52.4183 53.7516 56 49.3333 56Z" fill="#CCCCCC"/>
</svg>