<svg xmlns="http://www.w3.org/2000/svg" width="64" height="64" viewBox="0 0 64 64" fill="none">
  <path opacity="0.5" d="M58.6667 31.9999C58.6667 46.7275 46.7276 58.6666 32 58.6666C17.2724 58.6666 5.33334 46.7275 5.33334 31.9999C5.33334 17.2723 17.2724 5.33325 32 5.33325C46.7276 5.33325 58.6667 17.2723 58.6667 31.9999Z" fill="#CCCCCC"/>
  <path d="M32.0005 23.9999C34.946 23.9999 37.3339 21.6121 37.3339 18.6666C37.3339 15.7211 34.946 13.3333 32.0005 13.3333C29.055 13.3333 26.6672 15.7211 26.6672 18.6666C26.6672 21.6121 29.055 23.9999 32.0005 23.9999Z" fill="#CCCCCC"/>
  <path d="M16.7809 24.8251C15.7641 24.3942 14.5904 24.869 14.1592 25.8858C13.728 26.9027 14.2028 28.0766 15.2197 28.5079L15.2232 28.5094L15.2302 28.5123L15.2543 28.5225L15.3423 28.5591C15.4183 28.5906 15.5284 28.6358 15.6695 28.6929C15.9518 28.8069 16.3589 28.9683 16.8666 29.1612C17.8808 29.5465 19.3028 30.0602 20.9377 30.5744C23.5746 31.4039 26.9014 32.2796 30.0005 32.5681V35.8725C30.0005 37.023 29.6697 38.1493 29.0476 39.1171L22.3182 49.5851C21.7209 50.5142 21.9899 51.7516 22.919 52.3489C23.8481 52.9462 25.0856 52.6772 25.6829 51.7481L32.0005 41.9207L38.3182 51.7481C38.9155 52.6772 40.1529 52.9462 41.082 52.3489C42.0112 51.7516 42.2802 50.5142 41.6829 49.5851L34.9534 39.1171C34.3313 38.1493 34.0005 37.023 34.0005 35.8725V32.5681C37.0996 32.2796 40.4264 31.4039 43.0634 30.5744C44.6983 30.0602 46.1202 29.5465 47.1344 29.1612C47.6421 28.9683 48.0492 28.8069 48.3315 28.6929C48.4727 28.6358 48.5827 28.5906 48.6587 28.5591L48.7467 28.5225L48.7708 28.5123L48.7778 28.5094L48.7808 28.5081C49.7977 28.0769 50.273 26.9027 49.8418 25.8858C49.4106 24.869 48.2365 24.3943 47.2197 24.8253L47.1998 24.8337L47.1273 24.8639C47.0618 24.891 46.9628 24.9317 46.8333 24.9841C46.574 25.0888 46.1929 25.2399 45.7137 25.422C44.754 25.7866 43.4073 26.273 41.8631 26.7587C38.7213 27.747 34.9638 28.6666 32.0005 28.6666C29.0372 28.6666 25.2798 27.747 22.1379 26.7587C20.5937 26.273 19.247 25.7866 18.2874 25.422C17.8081 25.2399 17.427 25.0888 17.1678 24.9841C17.0382 24.9317 16.9392 24.891 16.8738 24.8639L16.8012 24.8337L16.7845 24.8267L16.7809 24.8251Z" fill="#CCCCCC"/>
</svg>