<svg xmlns="http://www.w3.org/2000/svg" width="64" height="64" viewBox="0 0 64 64" fill="none">
  <path d="M5.33334 46.6666C5.33334 40.0392 10.7059 34.6666 17.3333 34.6666H24.5333C26.2135 34.6666 27.0536 34.6666 27.6953 34.9936C28.2598 35.2812 28.7187 35.7401 29.0064 36.3046C29.3333 36.9463 29.3333 37.7864 29.3333 39.4666V46.6666C29.3333 53.294 23.9608 58.6666 17.3333 58.6666C10.7059 58.6666 5.33334 53.294 5.33334 46.6666Z" fill="#CCCCCC"/>
  <path d="M34.6667 17.3333C34.6667 10.7058 40.0393 5.33325 46.6667 5.33325C53.2941 5.33325 58.6667 10.7058 58.6667 17.3333C58.6667 23.9607 53.2941 29.3333 46.6667 29.3333H38.0952C37.6972 29.3333 37.4982 29.3333 37.3308 29.3144C35.9399 29.1577 34.8422 28.06 34.6855 26.6691C34.6667 26.5017 34.6667 26.3027 34.6667 25.9047V17.3333Z" fill="#CCCCCC"/>
  <g opacity="0.5">
    <path d="M5.33334 17.3333C5.33334 10.7058 10.7059 5.33325 17.3333 5.33325C23.9608 5.33325 29.3333 10.7058 29.3333 17.3333V25.3333C29.3333 26.2632 29.3333 26.7282 29.2311 27.1097C28.9537 28.145 28.1451 28.9536 27.1098 29.231C26.7283 29.3333 26.2633 29.3333 25.3333 29.3333H17.3333C10.7059 29.3333 5.33334 23.9607 5.33334 17.3333Z" fill="#CCCCCC"/>
    <path d="M34.6667 38.6666C34.6667 37.7366 34.6667 37.2716 34.7689 36.8901C35.0463 35.8549 35.8549 35.0462 36.8902 34.7688C37.2717 34.6666 37.7367 34.6666 38.6667 34.6666H46.6667C53.2941 34.6666 58.6667 40.0392 58.6667 46.6666C58.6667 53.294 53.2941 58.6666 46.6667 58.6666C40.0393 58.6666 34.6667 53.294 34.6667 46.6666V38.6666Z" fill="#CCCCCC"/>
  </g>
</svg>