<svg xmlns="http://www.w3.org/2000/svg" width="64" height="64" viewBox="0 0 64 64" fill="none">
  <path opacity="0.3" d="M43.9232 43.9227C57.093 30.7529 62.4311 14.7386 55.8462 8.15373C49.2613 1.56884 33.2471 6.90695 20.0773 20.0767C6.90756 33.2465 1.56947 49.2608 8.15434 55.8457C14.7392 62.4306 30.7535 57.0925 43.9232 43.9227Z" fill="#CCCCCC"/>
  <path opacity="0.3" d="M20.0768 43.9231C6.90704 30.7533 1.56894 14.739 8.15381 8.1541C14.7387 1.56921 30.753 6.90732 43.9227 20.0771C57.0925 33.2469 62.4306 49.2612 55.8457 55.8461C49.2608 62.431 33.2465 57.0929 20.0768 43.9231Z" fill="#CCCCCC"/>
  <path d="M38.6667 31.9999C38.6667 35.6818 35.6819 38.6666 32 38.6666C28.3181 38.6666 25.3333 35.6818 25.3333 31.9999C25.3333 28.318 28.3181 25.3333 32 25.3333C35.6819 25.3333 38.6667 28.318 38.6667 31.9999Z" fill="#CCCCCC"/>
</svg>