<svg xmlns="http://www.w3.org/2000/svg" width="64" height="63" viewBox="0 0 64 63" fill="none">
  <path opacity="0.5" d="M11 27.5625V7.21875H53V27.5625C53 35.6059 53 39.6275 50.364 42.1263C47.7279 44.625 43.4853 44.625 35 44.625H33.9688H30.0312H29C20.5147 44.625 16.2721 44.625 13.636 42.1263C11 39.6275 11 35.6058 11 27.5625Z" fill="#CCCCCC"/>
  <path d="M41.2671 23.7046C42.036 22.9358 42.036 21.6892 41.2671 20.9204C40.4983 20.1515 39.2517 20.1515 38.4829 20.9204L35.089 24.3142C34.9051 24.4981 34.756 24.6471 34.625 24.774C34.494 24.6471 34.3449 24.4981 34.161 24.3142L32.5592 22.7124C32.1787 22.3316 31.7672 21.9198 31.373 21.6191C30.9112 21.2667 30.2504 20.8874 29.375 20.8874C28.4996 20.8874 27.8388 21.2667 27.377 21.6191C26.9827 21.9199 26.5712 22.3317 26.1907 22.7126L22.7329 26.1704C21.964 26.9392 21.964 28.1858 22.7329 28.9546C23.5017 29.7235 24.7483 29.7235 25.5171 28.9546L28.911 25.5608C29.0949 25.3769 29.244 25.2279 29.375 25.101C29.506 25.2279 29.6551 25.3769 29.839 25.5608L31.4407 27.1624C31.8212 27.5433 32.2328 27.9551 32.627 28.2559C33.0888 28.6083 33.7496 28.9876 34.625 28.9876C35.5004 28.9876 36.1612 28.6083 36.623 28.2559C37.0173 27.9551 37.4288 27.5433 37.8093 27.1624L41.2671 23.7046Z" fill="#CCCCCC"/>
  <path d="M5.75 3.28125C4.66269 3.28125 3.78125 4.16269 3.78125 5.25C3.78125 6.33731 4.66269 7.21875 5.75 7.21875H11H53H58.25C59.3373 7.21875 60.2188 6.33731 60.2188 5.25C60.2188 4.16269 59.3373 3.28125 58.25 3.28125H5.75Z" fill="#CCCCCC"/>
  <path d="M30.0317 44.625V53.9082L25.87 55.9891C24.8975 56.4754 24.5033 57.6579 24.9895 58.6305C25.4758 59.603 26.6584 59.9972 27.6309 59.5109L32.0004 57.3261L36.37 59.5109C37.3425 59.9972 38.5251 59.603 39.0113 58.6305C39.4976 57.6579 39.1034 56.4754 38.1309 55.9891L33.9692 53.9082V44.625H30.0317Z" fill="#CCCCCC"/>
</svg>